<svg width="32" height="32" viewBox="0 0 32 32" fill="none" xmlns="http://www.w3.org/2000/svg">
<path d="M17.6667 12.3333H15V9.66667H17.6667M17.6667 23H15V15H17.6667M16.3333 3C14.5824 3 12.8486 3.34488 11.2309 4.01494C9.61321 4.685 8.14336 5.66713 6.90524 6.90524C4.40476 9.40573 3 12.7971 3 16.3333C3 19.8696 4.40476 23.2609 6.90524 25.7614C8.14336 26.9995 9.61321 27.9817 11.2309 28.6517C12.8486 29.3218 14.5824 29.6667 16.3333 29.6667C19.8696 29.6667 23.2609 28.2619 25.7614 25.7614C28.2619 23.2609 29.6667 19.8696 29.6667 16.3333C29.6667 14.5824 29.3218 12.8486 28.6517 11.2309C27.9817 9.61321 26.9995 8.14336 25.7614 6.90524C24.5233 5.66713 23.0535 4.685 21.4358 4.01494C19.8181 3.34488 18.0843 3 16.3333 3Z" fill="#3C3C3C"/>
</svg>
