<svg width="32" height="32" viewBox="0 0 32 32" fill="none" xmlns="http://www.w3.org/2000/svg">
<path d="M7 4C5.34315 4 4 5.34315 4 7V25C4 26.6569 5.34315 28 7 28H25C26.6569 28 28 26.6569 28 25V7C28 5.34315 26.6569 4 25 4H7ZM24 23.3333C24 23.7015 23.7015 24 23.3333 24H8.66667C8.29848 24 8 23.7015 8 23.3333V23.3333C8 22.9651 8.29848 22.6667 8.66667 22.6667H23.3333C23.7015 22.6667 24 22.9651 24 23.3333V23.3333ZM24 20.6667C24 21.0349 23.7015 21.3333 23.3333 21.3333H8.66667C8.29848 21.3333 8 21.0349 8 20.6667V20.6667C8 20.2985 8.29848 20 8.66667 20H23.3333C23.7015 20 24 20.2985 24 20.6667V20.6667ZM24 13C24 14.6569 22.6569 16 21 16H11C9.34315 16 8 14.6569 8 13V11C8 9.34315 9.34315 8 11 8H21C22.6569 8 24 9.34315 24 11V13Z" fill="#3C3C3C"/>
</svg>
