<svg width="32" height="32" viewBox="0 0 32 32" fill="none" xmlns="http://www.w3.org/2000/svg">
<path d="M28 15.4416V26.9979C28 27.5283 27.7893 28.037 27.4142 28.4121C27.0391 28.7872 26.5304 28.9979 26 28.9979H21C20.4696 28.9979 19.9609 28.7872 19.5858 28.4121C19.2107 28.037 19 27.5283 19 26.9979V21.9979C19 21.7327 18.8946 21.4783 18.7071 21.2908C18.5196 21.1032 18.2652 20.9979 18 20.9979H14C13.7348 20.9979 13.4804 21.1032 13.2929 21.2908C13.1054 21.4783 13 21.7327 13 21.9979V26.9979C13 27.5283 12.7893 28.037 12.4142 28.4121C12.0391 28.7872 11.5304 28.9979 11 28.9979H6C5.46957 28.9979 4.96086 28.7872 4.58579 28.4121C4.21071 28.037 4 27.5283 4 26.9979V15.4416C3.99996 15.1648 4.05737 14.891 4.16861 14.6376C4.27985 14.3841 4.4425 14.1565 4.64625 13.9691L14.6462 4.53412L14.66 4.52037C15.0282 4.18554 15.508 4 16.0056 4C16.5033 4 16.9831 4.18554 17.3512 4.52037C17.3555 4.52527 17.3601 4.52986 17.365 4.53412L27.365 13.9691C27.5667 14.1575 27.7273 14.3855 27.8365 14.6389C27.9458 14.8924 28.0015 15.1657 28 15.4416Z" fill="#3C3C3C"/>
</svg>
